<?xml version="1.0" standalone="no"?>
<!DOCTYPE svg PUBLIC "-//W3C//DTD SVG 20010904//EN"
 "http://www.w3.org/TR/2001/REC-SVG-20010904/DTD/svg10.dtd">
<svg version="1.0" xmlns="http://www.w3.org/2000/svg"
 width="2492.000000pt" height="620.000000pt" viewBox="0 0 2492.000000 620.000000"
 preserveAspectRatio="xMidYMid meet">

<g transform="translate(0.000000,620.000000) scale(0.100000,-0.100000)"
fill="#000000" stroke="none">
<path d="M24545 6164 c-22 -3 -413 -41 -870 -85 -931 -89 -2254 -220 -2536
-249 -255 -27 -290 -39 -352 -121 l-27 -36 0 -541 0 -541 48 -51 c74 -81 73
-81 590 -69 477 12 602 10 626 -10 8 -7 18 -31 21 -54 3 -23 10 -963 15 -2089
9 -2025 9 -2047 29 -2086 27 -53 71 -88 134 -107 65 -19 833 -96 983 -98 110
-2 113 -1 155 28 62 44 85 83 93 157 3 35 11 1013 16 2173 8 1605 13 2112 22
2123 7 8 22 18 35 23 30 11 253 26 603 39 607 23 631 27 703 110 l34 41 8 498
c7 492 1 772 -17 821 -12 31 -64 87 -100 106 -29 15 -146 25 -213 18z"/>
<path d="M2570 5999 c-1102 -105 -2062 -922 -2400 -2042 -94 -309 -130 -563
-130 -906 0 -337 17 -499 81 -756 131 -532 375 -983 727 -1347 459 -473 1006
-742 1667 -818 248 -29 659 -22 923 15 461 65 927 260 1267 530 103 82 268
247 355 356 272 340 454 762 534 1239 37 219 49 363 50 600 1 185 -2 223 -18
269 -23 68 -87 135 -141 150 -26 7 -181 11 -441 11 -568 0 -1786 -19 -1928
-30 -108 -8 -124 -12 -160 -38 -24 -17 -51 -49 -66 -78 l-25 -49 0 -361 0
-361 30 -49 c23 -37 45 -56 87 -78 l57 -29 578 -6 c618 -7 623 -8 623 -57 0
-63 -117 -244 -230 -355 -188 -185 -402 -291 -710 -353 -254 -51 -508 -58
-713 -22 -568 102 -1021 547 -1178 1155 -92 357 -71 762 56 1091 228 591 694
943 1308 986 110 8 335 -10 470 -37 248 -50 482 -191 656 -397 101 -119 165
-184 203 -203 35 -18 69 -19 693 -19 l655 0 31 43 c26 36 30 48 24 82 -9 62
-101 284 -185 450 -128 252 -217 385 -390 581 -492 558 -1234 851 -2135 843
-77 -1 -178 -5 -225 -10z"/>
<path d="M19715 5733 c-22 -2 -173 -12 -335 -23 -490 -34 -513 -38 -584 -121
l-36 -43 0 -2528 0 -2528 48 -49 c32 -33 60 -53 89 -60 86 -23 939 -87 1013
-76 56 9 107 34 143 73 22 23 31 46 40 103 19 116 17 5060 -2 5112 -18 52 -67
106 -116 128 -39 18 -137 23 -260 12z"/>
<path d="M6345 5619 c-37 -22 -87 -74 -105 -109 -17 -34 -18 -132 -24 -2160
-4 -1169 -3 -2283 1 -2477 l8 -351 31 -43 c49 -67 89 -83 220 -87 127 -5 774
24 877 39 38 5 80 15 95 23 36 18 80 63 100 101 15 27 16 245 17 2465 l0 2435
-22 36 c-36 57 -91 89 -170 99 -210 28 -993 50 -1028 29z"/>
<path d="M17290 5600 c-502 -27 -526 -32 -593 -110 -31 -37 -362 -610 -793
-1375 -255 -453 -319 -559 -347 -575 -24 -13 -28 -13 -54 6 l-28 21 -7 864
c-4 534 -10 889 -17 928 -8 47 -18 72 -38 94 -34 35 -85 62 -136 71 -21 4
-253 2 -515 -4 -470 -12 -477 -12 -523 -36 -56 -28 -105 -84 -122 -139 -9 -31
-12 -551 -12 -2330 0 -2515 -4 -2347 62 -2424 57 -67 81 -71 523 -81 212 -4
440 -6 508 -3 112 6 127 9 167 34 24 15 55 47 70 73 l26 45 7 700 c7 665 8
700 26 720 11 12 28 21 38 21 39 0 67 -34 870 -1076 328 -424 392 -500 447
-528 59 -31 363 -53 881 -63 355 -7 346 -8 414 68 45 49 74 110 82 172 10 70
-22 125 -246 422 -991 1312 -1290 1731 -1290 1806 0 36 24 77 410 704 386 627
919 1501 993 1630 54 92 71 163 55 221 -13 50 -53 105 -97 135 -33 23 -42 24
-225 26 -105 1 -346 -7 -536 -17z"/>
<path d="M8400 5541 c-82 -12 -146 -72 -161 -152 -15 -83 -21 -1783 -12 -3364
9 -1560 2 -1427 79 -1494 64 -56 62 -56 419 -54 398 2 600 15 654 43 44 22 92
73 108 116 9 21 14 366 20 1222 l8 1194 28 24 c32 27 63 31 94 9 28 -20 153
-175 592 -735 433 -552 466 -591 524 -619 47 -23 136 -28 182 -11 48 18 136
113 324 350 103 129 312 392 465 584 321 404 359 446 393 446 34 0 83 -31 88
-55 2 -11 6 -544 8 -1185 3 -896 6 -1172 16 -1195 16 -40 56 -81 107 -111 l42
-25 469 3 470 3 42 29 c23 16 54 50 69 75 l27 46 3 2317 3 2317 -25 50 c-14
27 -40 61 -58 74 -67 50 -88 52 -458 52 -429 -1 -415 3 -528 -123 -43 -48
-201 -233 -352 -412 -1067 -1264 -1104 -1307 -1159 -1330 -62 -25 -79 -8 -518
528 -794 968 -1052 1279 -1088 1311 -62 54 -87 60 -276 66 -351 10 -555 12
-599 6z"/>
</g>
</svg>
